<svg width="36" height="36" viewBox="0 0 36 36" fill="none" xmlns="http://www.w3.org/2000/svg">
<path d="M10.7083 16.5417V10.7083C10.7083 8.77445 11.4766 6.91979 12.844 5.55234C14.2115 4.18488 16.0661 3.41666 18 3.41666C19.9339 3.41666 21.7885 4.18488 23.156 5.55234C24.5234 6.91979 25.2917 8.77445 25.2917 10.7083V16.5417M7.79167 16.5417H28.2083C29.8192 16.5417 31.125 17.8475 31.125 19.4583V29.6667C31.125 31.2775 29.8192 32.5833 28.2083 32.5833H7.79167C6.18084 32.5833 4.875 31.2775 4.875 29.6667V19.4583C4.875 17.8475 6.18084 16.5417 7.79167 16.5417Z" stroke="#009951" stroke-width="4" stroke-linecap="round" stroke-linejoin="round"/>
</svg>
